<svg xmlns="http://www.w3.org/2000/svg" width="147.6162" height="147.612" viewBox="0 0 147.6162 147.612"><defs><style>.cls-1{fill:#119ef8;}</style></defs><title>screen</title><g id="Layer_2" data-name="Layer 2"><g id="Layer_1-2" data-name="Layer 1"><path class="cls-1" d="M133.318,119.4066a13.9247,13.9247,0,0,1-13.9114,13.9072H28.2082a13.9244,13.9244,0,0,1-13.91-13.9072V28.2054a13.9244,13.9244,0,0,1,13.91-13.9072H83.8161V0H28.2082A28.2394,28.2394,0,0,0,0,28.2054v91.2012A28.2394,28.2394,0,0,0,28.2082,147.612h91.1984a28.24,28.24,0,0,0,28.21-28.2054V63.7973H133.318Z"/><polygon class="cls-1" points="94.368 0 94.368 14.298 123.208 14.298 85.024 52.479 95.133 62.588 133.318 24.406 133.318 53.244 147.616 53.244 147.616 0 94.368 0"/></g></g></svg>