<svg id="Layer_1" data-name="Layer 1" xmlns="http://www.w3.org/2000/svg" viewBox="0 0 65.53 65.53">
  <g id="candies-group">
    <path d="M57.75,57.75a6.46,6.46,0,0,1-4,1.86,6.44,6.44,0,0,1-12.49,1.62,82.74,82.74,0,0,1-3.13-9.69A19.51,19.51,0,0,1,14,27.44a83.07,83.07,0,0,1-9.68-3.13,6.37,6.37,0,0,1-2.43-1.52,6.44,6.44,0,0,1,4-11,6.42,6.42,0,0,1,5.9-5.9A6.43,6.43,0,0,1,24.31,4.31,81.79,81.79,0,0,1,27.44,14a19.51,19.51,0,0,1,24.1,24.1,82.76,82.76,0,0,1,9.69,3.13,6.44,6.44,0,0,1-1.62,12.49A6.46,6.46,0,0,1,57.75,57.75Z" fill="#1499E3"/>
    <path d="M57.75,57.75a6.46,6.46,0,0,1-4,1.86,6.44,6.44,0,0,1-12.49,1.62,82.74,82.74,0,0,1-3.13-9.69A19.51,19.51,0,0,1,14,27.44a83.07,83.07,0,0,1-9.68-3.13,6.37,6.37,0,0,1-2.43-1.52,6.44,6.44,0,0,1,4-11,6.42,6.42,0,0,1,5.9-5.9A6.43,6.43,0,0,1,24.31,4.31,81.79,81.79,0,0,1,27.44,14a19.51,19.51,0,0,1,24.1,24.1,82.76,82.76,0,0,1,9.69,3.13,6.44,6.44,0,0,1-1.62,12.49A6.46,6.46,0,0,1,57.75,57.75Z" fill="#1499E3"/>
    <path d="M57.75,57.75a6.46,6.46,0,0,1-4,1.86,6.44,6.44,0,0,1-12.49,1.62,82.74,82.74,0,0,1-3.13-9.69A19.51,19.51,0,0,1,14,27.44a83.07,83.07,0,0,1-9.68-3.13,6.37,6.37,0,0,1-2.43-1.52,6.44,6.44,0,0,1,4-11,6.42,6.42,0,0,1,5.9-5.9A6.43,6.43,0,0,1,24.31,4.31,81.79,81.79,0,0,1,27.44,14a19.51,19.51,0,0,1,24.1,24.1,82.76,82.76,0,0,1,9.69,3.13,6.44,6.44,0,0,1-1.62,12.49A6.46,6.46,0,0,1,57.75,57.75Z" fill="#1499E3"/>
    <path d="M57.75,57.75a6.46,6.46,0,0,1-4,1.86,6.44,6.44,0,0,1-12.49,1.62,82.74,82.74,0,0,1-3.13-9.69A19.51,19.51,0,0,1,14,27.44a83.07,83.07,0,0,1-9.68-3.13,6.37,6.37,0,0,1-2.43-1.52,6.44,6.44,0,0,1,4-11,6.42,6.42,0,0,1,5.9-5.9A6.43,6.43,0,0,1,24.31,4.31,81.79,81.79,0,0,1,27.44,14a19.51,19.51,0,0,1,24.1,24.1,82.76,82.76,0,0,1,9.69,3.13,6.44,6.44,0,0,1-1.62,12.49A6.46,6.46,0,0,1,57.75,57.75Z" fill="#1499E3"/>
    <path d="M57.75,57.75a6.46,6.46,0,0,1-4,1.86,6.44,6.44,0,0,1-12.49,1.62,82.74,82.74,0,0,1-3.13-9.69A19.51,19.51,0,0,1,14,27.44a83.07,83.07,0,0,1-9.68-3.13,6.37,6.37,0,0,1-2.43-1.52,6.44,6.44,0,0,1,4-11,6.42,6.42,0,0,1,5.9-5.9A6.43,6.43,0,0,1,24.31,4.31,81.79,81.79,0,0,1,27.44,14a19.51,19.51,0,0,1,24.1,24.1,82.76,82.76,0,0,1,9.69,3.13,6.44,6.44,0,0,1-1.62,12.49A6.46,6.46,0,0,1,57.75,57.75Z" fill="#1499E3"/>
    <path d="M57.75,57.75a6.46,6.46,0,0,1-4,1.86,6.44,6.44,0,0,1-12.49,1.62,82.74,82.74,0,0,1-3.13-9.69A19.51,19.51,0,0,1,14,27.44a83.07,83.07,0,0,1-9.68-3.13,6.37,6.37,0,0,1-2.43-1.52,6.44,6.44,0,0,1,4-11,6.42,6.42,0,0,1,5.9-5.9A6.43,6.43,0,0,1,24.31,4.31,81.79,81.79,0,0,1,27.44,14a19.51,19.51,0,0,1,24.1,24.1,82.76,82.76,0,0,1,9.69,3.13,6.44,6.44,0,0,1-1.62,12.49A6.46,6.46,0,0,1,57.75,57.75Z" fill="#1499E3"/>
    <path d="M57.75,57.75a6.46,6.46,0,0,1-4,1.86,6.44,6.44,0,0,1-12.49,1.62,82.74,82.74,0,0,1-3.13-9.69A19.51,19.51,0,0,1,14,27.44a83.07,83.07,0,0,1-9.68-3.13,6.37,6.37,0,0,1-2.43-1.52,6.44,6.44,0,0,1,4-11,6.42,6.42,0,0,1,5.9-5.9A6.43,6.43,0,0,1,24.31,4.31,81.79,81.79,0,0,1,27.44,14a19.51,19.51,0,0,1,24.1,24.1,82.76,82.76,0,0,1,9.69,3.13,6.44,6.44,0,0,1-1.62,12.49A6.46,6.46,0,0,1,57.75,57.75Z" fill="#1499E3"/>
    <path d="M57.75,57.75a6.46,6.46,0,0,1-4,1.86,6.44,6.44,0,0,1-12.49,1.62,82.74,82.74,0,0,1-3.13-9.69A19.51,19.51,0,0,1,14,27.44a83.07,83.07,0,0,1-9.68-3.13,6.37,6.37,0,0,1-2.43-1.52,6.44,6.44,0,0,1,4-11,6.42,6.42,0,0,1,5.9-5.9A6.43,6.43,0,0,1,24.31,4.31,81.79,81.79,0,0,1,27.44,14a19.51,19.51,0,0,1,24.1,24.1,82.76,82.76,0,0,1,9.69,3.13,6.44,6.44,0,0,1-1.62,12.49A6.46,6.46,0,0,1,57.75,57.75Z" fill="#1499E3"/>
    <path d="M57.75,57.75a6.46,6.46,0,0,1-4,1.86,6.44,6.44,0,0,1-12.49,1.62,82.74,82.74,0,0,1-3.13-9.69A19.51,19.51,0,0,1,14,27.44a83.07,83.07,0,0,1-9.68-3.13,6.37,6.37,0,0,1-2.43-1.52,6.44,6.44,0,0,1,4-11,6.42,6.42,0,0,1,5.9-5.9A6.43,6.43,0,0,1,24.31,4.31,81.79,81.79,0,0,1,27.44,14a19.51,19.51,0,0,1,24.1,24.1,82.76,82.76,0,0,1,9.69,3.13,6.44,6.44,0,0,1-1.62,12.49A6.46,6.46,0,0,1,57.75,57.75Z" fill="#1499E3"/>
    <path d="M57.75,57.75a6.46,6.46,0,0,1-4,1.86,6.44,6.44,0,0,1-12.49,1.62,82.74,82.74,0,0,1-3.13-9.69A19.51,19.51,0,0,1,14,27.44a83.07,83.07,0,0,1-9.68-3.13,6.37,6.37,0,0,1-2.43-1.52,6.44,6.44,0,0,1,4-11,6.42,6.42,0,0,1,5.9-5.9A6.43,6.43,0,0,1,24.31,4.31,81.79,81.79,0,0,1,27.44,14a19.51,19.51,0,0,1,24.1,24.1,82.76,82.76,0,0,1,9.69,3.13,6.44,6.44,0,0,1-1.62,12.49A6.46,6.46,0,0,1,57.75,57.75Z" fill="#1499E3"/>
    <path d="M57.75,57.75a6.46,6.46,0,0,1-4,1.86,6.44,6.44,0,0,1-12.49,1.62,82.74,82.74,0,0,1-3.13-9.69A19.51,19.51,0,0,1,14,27.44a83.07,83.07,0,0,1-9.68-3.13,6.37,6.37,0,0,1-2.43-1.52,6.44,6.44,0,0,1,4-11,6.42,6.42,0,0,1,5.9-5.9A6.43,6.43,0,0,1,24.31,4.31,81.79,81.79,0,0,1,27.44,14a19.51,19.51,0,0,1,24.1,24.1,82.76,82.76,0,0,1,9.69,3.13,6.44,6.44,0,0,1-1.62,12.49A6.46,6.46,0,0,1,57.75,57.75Z" fill="#1499E3"/>
    <path d="M57.75,57.75a6.46,6.46,0,0,1-4,1.86,6.44,6.44,0,0,1-12.49,1.62,82.74,82.74,0,0,1-3.13-9.69A19.51,19.51,0,0,1,14,27.44a83.07,83.07,0,0,1-9.68-3.13,6.37,6.37,0,0,1-2.43-1.52,6.44,6.44,0,0,1,4-11,6.42,6.42,0,0,1,5.9-5.9A6.43,6.43,0,0,1,24.31,4.31,81.79,81.79,0,0,1,27.44,14a19.51,19.51,0,0,1,24.1,24.1,82.76,82.76,0,0,1,9.69,3.13,6.44,6.44,0,0,1-1.62,12.49A6.46,6.46,0,0,1,57.75,57.75Z" fill="#1499E3"/>
    <path d="M57.75,57.75a6.46,6.46,0,0,1-4,1.86,6.44,6.44,0,0,1-12.49,1.62,82.74,82.74,0,0,1-3.13-9.69A19.51,19.51,0,0,1,14,27.44a83.07,83.07,0,0,1-9.68-3.13,6.37,6.37,0,0,1-2.43-1.52,6.44,6.44,0,0,1,4-11,6.42,6.42,0,0,1,5.9-5.9A6.43,6.43,0,0,1,24.31,4.31,81.79,81.79,0,0,1,27.44,14a19.51,19.51,0,0,1,24.1,24.1,82.76,82.76,0,0,1,9.69,3.13,6.44,6.44,0,0,1-1.62,12.49A6.46,6.46,0,0,1,57.75,57.75Z" fill="#1499E3"/>
    <path d="M57.75,57.75a6.46,6.46,0,0,1-4,1.86,6.44,6.44,0,0,1-12.49,1.62,82.74,82.74,0,0,1-3.13-9.69A19.51,19.51,0,0,1,14,27.44a83.07,83.07,0,0,1-9.68-3.13,6.37,6.37,0,0,1-2.43-1.52,6.44,6.44,0,0,1,4-11,6.42,6.42,0,0,1,5.9-5.9A6.43,6.43,0,0,1,24.31,4.31,81.79,81.79,0,0,1,27.44,14a19.51,19.51,0,0,1,24.1,24.1,82.76,82.76,0,0,1,9.69,3.13,6.44,6.44,0,0,1-1.62,12.49A6.46,6.46,0,0,1,57.75,57.75Z" fill="#1499E3"/>
    <path d="M57.75,57.75a6.46,6.46,0,0,1-4,1.86,6.44,6.44,0,0,1-12.49,1.62,82.74,82.74,0,0,1-3.13-9.69A19.51,19.51,0,0,1,14,27.44a83.07,83.07,0,0,1-9.68-3.13,6.37,6.37,0,0,1-2.43-1.52,6.44,6.44,0,0,1,4-11,6.42,6.42,0,0,1,5.9-5.9A6.43,6.43,0,0,1,24.31,4.31,81.79,81.79,0,0,1,27.44,14a19.51,19.51,0,0,1,24.1,24.1,82.76,82.76,0,0,1,9.69,3.13,6.44,6.44,0,0,1-1.62,12.49A6.46,6.46,0,0,1,57.75,57.75Z" fill="#1499E3"/>
    <path d="M57.75,57.75a6.46,6.46,0,0,1-4,1.86,6.44,6.44,0,0,1-12.49,1.62,82.74,82.74,0,0,1-3.13-9.69A19.51,19.51,0,0,1,14,27.44a83.07,83.07,0,0,1-9.68-3.13,6.37,6.37,0,0,1-2.43-1.52,6.44,6.44,0,0,1,4-11,6.42,6.42,0,0,1,5.9-5.9A6.43,6.43,0,0,1,24.31,4.31,81.79,81.79,0,0,1,27.44,14a19.51,19.51,0,0,1,24.1,24.1,82.76,82.76,0,0,1,9.69,3.13,6.44,6.44,0,0,1-1.62,12.49A6.46,6.46,0,0,1,57.75,57.75Z" fill="#1499E3"/>
    <path d="M57.75,57.75a6.46,6.46,0,0,1-4,1.86,6.44,6.44,0,0,1-12.49,1.62,82.74,82.74,0,0,1-3.13-9.69A19.51,19.51,0,0,1,14,27.44a83.07,83.07,0,0,1-9.68-3.13,6.37,6.37,0,0,1-2.43-1.52,6.44,6.44,0,0,1,4-11,6.42,6.42,0,0,1,5.9-5.9A6.43,6.43,0,0,1,24.31,4.31,81.79,81.79,0,0,1,27.44,14a19.51,19.51,0,0,1,24.1,24.1,82.76,82.76,0,0,1,9.69,3.13,6.44,6.44,0,0,1-1.62,12.49A6.46,6.46,0,0,1,57.75,57.75Z" fill="#1499E3"/>
    <path d="M57.75,57.75a6.46,6.46,0,0,1-4,1.86,6.44,6.44,0,0,1-12.49,1.62,82.74,82.74,0,0,1-3.13-9.69A19.51,19.51,0,0,1,14,27.44a83.07,83.07,0,0,1-9.68-3.13,6.37,6.37,0,0,1-2.43-1.52,6.44,6.44,0,0,1,4-11,6.42,6.42,0,0,1,5.9-5.9A6.43,6.43,0,0,1,24.31,4.31,81.79,81.79,0,0,1,27.44,14a19.51,19.51,0,0,1,24.1,24.1,82.76,82.76,0,0,1,9.69,3.13,6.44,6.44,0,0,1-1.62,12.49A6.46,6.46,0,0,1,57.75,57.75Z" fill="#1499E3"/>
  </g>
</svg>
